<?xml version="1.0" standalone="no"?>
<!DOCTYPE svg PUBLIC "-//W3C//DTD SVG 20010904//EN"
 "http://www.w3.org/TR/2001/REC-SVG-20010904/DTD/svg10.dtd">
<svg version="1.0" xmlns="http://www.w3.org/2000/svg"
 width="512.000000pt" height="512.000000pt" viewBox="0 0 512.000000 512.000000"
 preserveAspectRatio="xMidYMid meet">
<metadata>
Created by potrace 1.14, written by Peter Selinger 2001-2017
</metadata>
<g transform="translate(0.000000,512.000000) scale(0.100000,-0.100000)"
fill="#000000" stroke="none">
<path d="M0 2560 l0 -2560 2560 0 2560 0 0 2560 0 2560 -2560 0 -2560 0 0
-2560z m3090 2220 l0 -129 128 -3 127 -3 3 -139 3 -139 -207 6 c-114 4 -289 4
-390 0 l-184 -6 0 -123 0 -123 123 -3 122 -3 3 -127 3 -127 -123 -3 -123 -3
-5 -130 -5 -130 -130 0 -130 0 -3 128 -3 127 -129 0 -130 0 0 400 0 400 130 0
130 0 0 130 0 130 395 0 395 0 0 -130z m260 -1050 l0 -130 130 0 130 0 0 -135
0 -135 -265 0 -265 0 0 130 0 129 -127 3 -128 3 -3 119 c-1 66 0 126 2 133 4
10 60 13 266 13 l260 0 0 -130z m-1560 -265 l0 -135 -270 0 -270 0 0 135 0
135 270 0 270 0 0 -135z m1333 -1187 c92 -86 124 -114 202 -183 360 -315 337
-294 328 -310 -24 -42 -341 -385 -356 -385 -15 0 -167 110 -412 300 -88 68
-93 70 -209 70 l-106 0 0 -260 0 -261 -132 3 -133 3 -3 258 -2 257 -130 0
-130 0 2 268 3 267 497 0 c273 0 500 3 504 8 14 14 31 7 77 -35z"/>
<path d="M2317 4633 c-4 -3 -7 -62 -7 -130 l0 -123 125 0 125 0 0 130 0 130
-118 0 c-65 0 -122 -3 -125 -7z"/>
</g>
</svg>
